<svg width="28" height="20" viewBox="0 0 28 20" fill="none" xmlns="http://www.w3.org/2000/svg">
<path d="M6.10205 1.5V9.55762H4.7251V1.5H6.10205Z" stroke="#DFDFDF" stroke-opacity="0.7" stroke-width="3"/>
<mask id="path-2-inside-1_46_390" fill="white">
<path d="M1.65076 2.30359H0.652829C0.292481 2.30359 0 2.58275 0 2.92669V8.13054C0 8.47453 0.292481 8.75364 0.652829 8.75364H1.65076C2.01111 8.75364 2.30359 8.47448 2.30359 8.13054V2.92669C2.30359 2.58275 2.01111 2.30359 1.65076 2.30359Z"/>
</mask>
<path d="M2.30359 2.92669H5.30359H2.30359ZM1.65076 2.30359V-0.696411H0.652829V2.30359V5.30359H1.65076V2.30359ZM0.652829 2.30359V-0.696411C-1.23107 -0.696411 -3 0.795663 -3 2.92669H0H3C3 4.36984 1.81603 5.30359 0.652829 5.30359V2.30359ZM0 2.92669H-3V8.13054H0H3V2.92669H0ZM0 8.13054H-3C-3 10.2618 -1.23091 11.7536 0.652829 11.7536V8.75364V5.75364C1.81588 5.75364 3 6.68729 3 8.13054H0ZM0.652829 8.75364V11.7536H1.65076V8.75364V5.75364H0.652829V8.75364ZM1.65076 8.75364V11.7536C3.53466 11.7536 5.30359 10.2616 5.30359 8.13054H2.30359H-0.69641C-0.69641 6.68739 0.487558 5.75364 1.65076 5.75364V8.75364ZM2.30359 8.13054H5.30359V2.92669H2.30359H-0.69641V8.13054H2.30359ZM2.30359 2.92669H5.30359C5.30359 0.795663 3.53466 -0.696411 1.65076 -0.696411V2.30359V5.30359C0.487558 5.30359 -0.69641 4.36984 -0.69641 2.92669H2.30359Z" fill="#DFDFDF" fill-opacity="0.7" mask="url(#path-2-inside-1_46_390)"/>
<mask id="path-4-inside-2_46_390" fill="white">
<path d="M16.3555 4.14648H8.75366V6.91079H16.3555V4.14648Z"/>
</mask>
<path d="M8.75366 4.14648V1.14648H5.75366V4.14648H8.75366ZM16.3555 4.14648H19.3555V1.14648H16.3555V4.14648ZM16.3555 6.91079V9.91079H19.3555V6.91079H16.3555ZM8.75366 6.91079H5.75366V9.91079H8.75366V6.91079ZM8.75366 4.14648V7.14648H16.3555V4.14648V1.14648H8.75366V4.14648ZM16.3555 4.14648H13.3555V6.91079H16.3555H19.3555V4.14648H16.3555ZM16.3555 6.91079V3.91079H8.75366V6.91079V9.91079H16.3555V6.91079ZM8.75366 6.91079H11.7537V4.14648H8.75366H5.75366V6.91079H8.75366Z" fill="#DFDFDF" fill-opacity="0.7" mask="url(#path-4-inside-2_46_390)"/>
<path d="M20.3843 1.5V9.55762H19.0073V1.5H20.3843Z" stroke="#DFDFDF" stroke-opacity="0.7" stroke-width="3"/>
<mask id="path-7-inside-3_46_390" fill="white">
<path d="M24.4564 2.30359H23.4585C23.0981 2.30359 22.8057 2.58275 22.8057 2.92669V8.13054C22.8057 8.47453 23.0982 8.75364 23.4585 8.75364H24.4564C24.8168 8.75364 25.1093 8.47448 25.1093 8.13054V2.92669C25.1093 2.58275 24.8168 2.30359 24.4564 2.30359Z"/>
</mask>
<path d="M24.4564 2.30359V-0.696411H23.4585V2.30359V5.30359H24.4564V2.30359ZM23.4585 2.30359V-0.696411C21.5745 -0.696411 19.8057 0.795748 19.8057 2.92669H22.8057H25.8057C25.8057 4.36975 24.6217 5.30359 23.4585 5.30359V2.30359ZM22.8057 2.92669H19.8057V8.13054H22.8057H25.8057V2.92669H22.8057ZM22.8057 8.13054H19.8057C19.8057 10.2618 21.5748 11.7536 23.4585 11.7536V8.75364V5.75364C24.6215 5.75364 25.8057 6.68723 25.8057 8.13054H22.8057ZM23.4585 8.75364V11.7536H24.4564V8.75364V5.75364H23.4585V8.75364ZM24.4564 8.75364V11.7536C26.3405 11.7536 28.1093 10.2615 28.1093 8.13054H25.1093H22.1093C22.1093 6.68748 23.2932 5.75364 24.4564 5.75364V8.75364ZM25.1093 8.13054H28.1093V2.92669H25.1093H22.1093V8.13054H25.1093ZM25.1093 2.92669H28.1093C28.1093 0.795599 26.3403 -0.696411 24.4564 -0.696411V2.30359V5.30359C23.2933 5.30359 22.1093 4.3699 22.1093 2.92669H25.1093Z" fill="#DFDFDF" fill-opacity="0.7" mask="url(#path-7-inside-3_46_390)"/>
<path d="M14.6057 13.2147L27.1249 13.2147" stroke="#DFDFDF" stroke-width="5"/>
<path d="M20.8652 6.95514L20.8652 19.4744" stroke="#DFDFDF" stroke-width="5"/>
</svg>
